<svg width="16" height="16" viewBox="0 0 16 16" fill="none" xmlns="http://www.w3.org/2000/svg">
<path opacity="0.2" d="M14 5.75003C14 6.8772 13.5522 7.9582 12.7552 8.75523C11.9581 9.55226 10.8771 10 9.74996 10H4.74996C4.35099 9.99965 3.95689 9.91246 3.59499 9.74452C3.2331 9.57657 2.91208 9.3319 2.65421 9.02747C2.39634 8.72304 2.2078 8.36615 2.10168 7.98156C1.99555 7.59697 1.97437 7.19389 2.03962 6.8003C2.10486 6.4067 2.25497 6.03202 2.47952 5.70225C2.70407 5.37247 2.99768 5.09551 3.33999 4.89057C3.6823 4.68563 4.0651 4.55763 4.46182 4.51545C4.85855 4.47326 5.25971 4.5179 5.63745 4.64628V4.65315C5.9045 3.65671 6.52456 2.79127 7.38219 2.21795C8.23982 1.64464 9.27657 1.40252 10.2994 1.53669C11.3223 1.67085 12.2615 2.17215 12.9423 2.94724C13.623 3.72234 13.9989 4.71842 14 5.75003Z" fill="#1F5199"/>
<path d="M9.91625 12.2775L7.91625 15.2775C7.87981 15.3322 7.83296 15.3791 7.77837 15.4157C7.72378 15.4523 7.66253 15.4777 7.59811 15.4906C7.46801 15.5166 7.3329 15.4899 7.2225 15.4163C7.1121 15.3427 7.03547 15.2283 7.00944 15.0981C6.98342 14.968 7.01015 14.8329 7.08375 14.7225L9.08375 11.7225C9.15735 11.6121 9.27179 11.5355 9.40189 11.5095C9.53199 11.4835 9.6671 11.5102 9.7775 11.5838C9.8879 11.6574 9.96453 11.7718 9.99056 11.9019C10.0166 12.032 9.98985 12.1671 9.91625 12.2775ZM14.5 5.75004C14.4987 7.00941 13.9978 8.21682 13.1073 9.10733C12.2168 9.99784 11.0094 10.4987 9.75 10.5H8.2675L6.41625 13.2775C6.37981 13.3322 6.33296 13.3791 6.27837 13.4157C6.22378 13.4523 6.16253 13.4777 6.09811 13.4906C6.03369 13.5035 5.96736 13.5035 5.90292 13.4908C5.83847 13.478 5.77716 13.4527 5.7225 13.4163C5.66784 13.3798 5.62089 13.333 5.58433 13.2784C5.54778 13.2238 5.52233 13.1626 5.50944 13.0981C5.49656 13.0337 5.49649 12.9674 5.50924 12.903C5.52199 12.8385 5.54731 12.7772 5.58375 12.7225L7.06563 10.5H4.75C3.88805 10.5 3.0614 10.1576 2.4519 9.54813C1.84241 8.93864 1.5 8.11199 1.5 7.25004C1.5 6.38808 1.84241 5.56143 2.4519 4.95194C3.0614 4.34245 3.88805 4.00004 4.75 4.00004C4.93684 4.0002 5.12333 4.01609 5.3075 4.04754C5.70626 3.01177 6.45478 2.14812 7.42337 1.60622C8.39197 1.06432 9.51961 0.878317 10.6109 1.08044C11.7022 1.28255 12.6885 1.86006 13.3988 2.71289C14.109 3.56573 14.4986 4.64016 14.5 5.75004ZM13.5 5.75004C13.496 4.77632 13.1138 3.84226 12.4341 3.14506C11.7543 2.44785 10.8303 2.04205 9.85697 2.01334C8.88367 1.98463 7.9373 2.33525 7.21765 2.99117C6.498 3.6471 6.06139 4.557 6 5.52879C5.99622 5.59445 5.97955 5.65872 5.95094 5.71794C5.92232 5.77716 5.88232 5.83016 5.83322 5.87392C5.73406 5.9623 5.60386 6.00766 5.47125 6.00004C5.33864 5.99241 5.21449 5.93242 5.12612 5.83326C5.03774 5.7341 4.99238 5.6039 5 5.47129C5.00875 5.31879 5.02479 5.16816 5.04812 5.01941C4.94925 5.00672 4.84968 5.00025 4.75 5.00004C4.15326 5.00004 3.58097 5.23709 3.15901 5.65905C2.73705 6.081 2.5 6.6533 2.5 7.25004C2.5 7.84677 2.73705 8.41907 3.15901 8.84103C3.58097 9.26298 4.15326 9.50004 4.75 9.50004H9.75C10.7442 9.49888 11.6974 9.10342 12.4004 8.40041C13.1034 7.6974 13.4988 6.74424 13.5 5.75004Z" fill="#1F5199"/>
</svg>
