<svg width="1581" height="348" viewBox="0 0 1581 348" fill="none" xmlns="http://www.w3.org/2000/svg">
<path d="M398.811 167.27H410.335V233.093H398.811V167.27ZM423.916 185.431H433.872V192.437L434.057 192.622C435.655 189.979 437.744 187.92 440.326 186.445C442.907 184.909 445.765 184.14 448.899 184.14C454.123 184.14 458.241 185.492 461.253 188.197C464.264 190.901 465.77 194.957 465.77 200.366V233.093H455.26V203.131C455.137 199.382 454.338 196.678 452.863 195.019C451.388 193.298 449.084 192.437 445.949 192.437C444.167 192.437 442.569 192.775 441.155 193.451C439.742 194.066 438.543 194.957 437.56 196.125C436.577 197.231 435.808 198.553 435.255 200.089C434.702 201.626 434.426 203.254 434.426 204.975V233.093H423.916V185.431ZM472.981 185.431H480.909V171.142H491.419V185.431H500.914V193.267H491.419V218.711C491.419 219.818 491.449 220.77 491.511 221.569C491.634 222.368 491.849 223.044 492.156 223.597C492.525 224.15 493.047 224.581 493.723 224.888C494.399 225.134 495.321 225.257 496.489 225.257C497.227 225.257 497.964 225.257 498.702 225.257C499.439 225.195 500.177 225.072 500.914 224.888V233.001C499.746 233.124 498.609 233.246 497.503 233.369C496.397 233.492 495.26 233.554 494.092 233.554C491.326 233.554 489.083 233.308 487.362 232.816C485.703 232.263 484.382 231.495 483.398 230.511C482.476 229.467 481.831 228.176 481.462 226.64C481.155 225.103 480.971 223.351 480.909 221.385V193.267H472.981V185.431ZM542.123 205.067C542 203.408 541.632 201.81 541.017 200.273C540.464 198.737 539.665 197.416 538.62 196.309C537.637 195.142 536.408 194.22 534.933 193.544C533.519 192.806 531.921 192.437 530.139 192.437C528.295 192.437 526.605 192.775 525.068 193.451C523.593 194.066 522.303 194.957 521.196 196.125C520.152 197.231 519.291 198.553 518.615 200.089C518.001 201.626 517.663 203.285 517.601 205.067H542.123ZM517.601 211.981C517.601 213.825 517.847 215.608 518.339 217.328C518.892 219.049 519.691 220.555 520.735 221.846C521.78 223.136 523.102 224.181 524.7 224.98C526.298 225.718 528.203 226.086 530.415 226.086C533.488 226.086 535.947 225.441 537.79 224.15C539.696 222.798 541.109 220.801 542.031 218.158H551.988C551.434 220.739 550.482 223.044 549.13 225.072C547.778 227.1 546.149 228.821 544.244 230.235C542.338 231.587 540.187 232.601 537.79 233.277C535.455 234.015 532.997 234.383 530.415 234.383C526.666 234.383 523.348 233.769 520.459 232.54C517.57 231.31 515.112 229.59 513.084 227.377C511.117 225.165 509.611 222.522 508.567 219.449C507.583 216.376 507.091 212.996 507.091 209.308C507.091 205.928 507.614 202.732 508.659 199.72C509.765 196.647 511.301 193.974 513.268 191.7C515.296 189.364 517.724 187.521 520.551 186.169C523.378 184.816 526.574 184.14 530.139 184.14C533.888 184.14 537.237 184.939 540.187 186.537C543.199 188.074 545.688 190.133 547.655 192.714C549.621 195.295 551.035 198.276 551.895 201.656C552.817 204.975 553.063 208.417 552.633 211.981H517.601ZM561.821 167.27H572.33V233.093H561.821V167.27ZM584.98 167.27H595.489V233.093H584.98V167.27ZM608.139 167.27H618.648V177.226H608.139V167.27ZM608.139 185.431H618.648V233.093H608.139V185.431ZM675.087 230.604C675.087 237.794 673.059 243.141 669.003 246.645C665.008 250.209 659.231 251.992 651.671 251.992C649.274 251.992 646.847 251.746 644.388 251.254C641.992 250.762 639.779 249.933 637.751 248.765C635.784 247.597 634.125 246.061 632.773 244.155C631.421 242.25 630.622 239.915 630.376 237.149H640.885C641.193 238.624 641.715 239.823 642.452 240.744C643.19 241.666 644.05 242.373 645.034 242.865C646.079 243.418 647.216 243.756 648.445 243.879C649.674 244.063 650.965 244.155 652.317 244.155C656.557 244.155 659.661 243.111 661.628 241.021C663.595 238.931 664.578 235.92 664.578 231.987V224.704H664.393C662.918 227.346 660.89 229.405 658.309 230.88C655.789 232.355 653.054 233.093 650.104 233.093C646.294 233.093 643.036 232.447 640.332 231.157C637.689 229.805 635.477 227.992 633.695 225.718C631.974 223.382 630.714 220.709 629.915 217.697C629.116 214.686 628.716 211.459 628.716 208.017C628.716 204.821 629.208 201.779 630.191 198.891C631.175 196.002 632.588 193.482 634.432 191.331C636.276 189.119 638.519 187.367 641.162 186.076C643.866 184.786 646.908 184.14 650.289 184.14C653.3 184.14 656.066 184.786 658.586 186.076C661.105 187.306 663.041 189.272 664.393 191.976H664.578V185.431H675.087V230.604ZM651.764 224.796C654.099 224.796 656.066 224.335 657.664 223.413C659.323 222.43 660.644 221.17 661.628 219.633C662.673 218.035 663.41 216.253 663.84 214.286C664.332 212.258 664.578 210.23 664.578 208.202C664.578 206.174 664.332 204.207 663.84 202.302C663.349 200.396 662.58 198.706 661.536 197.231C660.552 195.756 659.231 194.588 657.571 193.728C655.974 192.868 654.038 192.437 651.764 192.437C649.428 192.437 647.461 192.929 645.863 193.912C644.266 194.896 642.975 196.186 641.992 197.784C641.008 199.321 640.301 201.103 639.871 203.131C639.441 205.098 639.226 207.065 639.226 209.031C639.226 210.998 639.472 212.934 639.963 214.839C640.455 216.683 641.193 218.343 642.176 219.818C643.221 221.293 644.511 222.491 646.048 223.413C647.646 224.335 649.551 224.796 651.764 224.796ZM719.317 205.067C719.194 203.408 718.826 201.81 718.211 200.273C717.658 198.737 716.859 197.416 715.814 196.309C714.831 195.142 713.602 194.22 712.127 193.544C710.713 192.806 709.115 192.437 707.333 192.437C705.489 192.437 703.799 192.775 702.262 193.451C700.787 194.066 699.497 194.957 698.39 196.125C697.346 197.231 696.485 198.553 695.809 200.089C695.194 201.626 694.856 203.285 694.795 205.067H719.317ZM694.795 211.981C694.795 213.825 695.041 215.608 695.532 217.328C696.086 219.049 696.885 220.555 697.929 221.846C698.974 223.136 700.296 224.181 701.894 224.98C703.491 225.718 705.397 226.086 707.609 226.086C710.682 226.086 713.141 225.441 714.984 224.15C716.89 222.798 718.303 220.801 719.225 218.158H729.182C728.628 220.739 727.676 223.044 726.324 225.072C724.972 227.1 723.343 228.821 721.438 230.235C719.532 231.587 717.381 232.601 714.984 233.277C712.649 234.015 710.191 234.383 707.609 234.383C703.86 234.383 700.541 233.769 697.653 232.54C694.764 231.31 692.306 229.59 690.278 227.377C688.311 225.165 686.805 222.522 685.76 219.449C684.777 216.376 684.285 212.996 684.285 209.308C684.285 205.928 684.808 202.732 685.853 199.72C686.959 196.647 688.495 193.974 690.462 191.7C692.49 189.364 694.918 187.521 697.745 186.169C700.572 184.816 703.768 184.14 707.333 184.14C711.082 184.14 714.431 184.939 717.381 186.537C720.393 188.074 722.882 190.133 724.849 192.714C726.815 195.295 728.229 198.276 729.089 201.656C730.011 204.975 730.257 208.417 729.827 211.981H694.795ZM738.738 185.431H748.695V192.437L748.879 192.622C750.477 189.979 752.567 187.92 755.148 186.445C757.729 184.909 760.587 184.14 763.721 184.14C768.946 184.14 773.063 185.492 776.075 188.197C779.086 190.901 780.592 194.957 780.592 200.366V233.093H770.083V203.131C769.96 199.382 769.161 196.678 767.686 195.019C766.211 193.298 763.906 192.437 760.771 192.437C758.989 192.437 757.391 192.775 755.978 193.451C754.564 194.066 753.366 194.957 752.382 196.125C751.399 197.231 750.631 198.553 750.077 200.089C749.524 201.626 749.248 203.254 749.248 204.975V233.093H738.738V185.431ZM787.803 185.431H795.731V171.142H806.241V185.431H815.736V193.267H806.241V218.711C806.241 219.818 806.272 220.77 806.333 221.569C806.456 222.368 806.671 223.044 806.978 223.597C807.347 224.15 807.87 224.581 808.546 224.888C809.222 225.134 810.143 225.257 811.311 225.257C812.049 225.257 812.786 225.257 813.524 225.257C814.261 225.195 814.999 225.072 815.736 224.888V233.001C814.569 233.124 813.432 233.246 812.325 233.369C811.219 233.492 810.082 233.554 808.914 233.554C806.149 233.554 803.905 233.308 802.185 232.816C800.525 232.263 799.204 231.495 798.22 230.511C797.298 229.467 796.653 228.176 796.284 226.64C795.977 225.103 795.793 223.351 795.731 221.385V193.267H787.803V185.431ZM852.273 167.27H879.561C884.601 167.27 888.965 168.13 892.652 169.851C896.34 171.572 899.351 173.938 901.687 176.95C904.022 179.9 905.743 183.372 906.849 187.367C908.017 191.362 908.601 195.633 908.601 200.181C908.601 204.729 908.017 209.001 906.849 212.996C905.743 216.99 904.022 220.494 901.687 223.505C899.351 226.455 896.34 228.791 892.652 230.511C888.965 232.232 884.601 233.093 879.561 233.093H852.273V167.27ZM863.797 223.689H875.136C879.623 223.689 883.28 223.106 886.107 221.938C888.995 220.709 891.239 219.049 892.837 216.96C894.496 214.809 895.602 212.319 896.155 209.492C896.77 206.604 897.077 203.5 897.077 200.181C897.077 196.862 896.77 193.789 896.155 190.962C895.602 188.074 894.496 185.585 892.837 183.495C891.239 181.344 888.995 179.685 886.107 178.517C883.28 177.288 879.623 176.673 875.136 176.673H863.797V223.689ZM958.169 222.491C958.169 223.782 958.323 224.704 958.63 225.257C958.999 225.81 959.675 226.086 960.658 226.086C960.966 226.086 961.334 226.086 961.765 226.086C962.195 226.086 962.686 226.025 963.24 225.902V233.185C962.871 233.308 962.379 233.431 961.765 233.554C961.211 233.738 960.628 233.892 960.013 234.015C959.398 234.138 958.784 234.23 958.169 234.291C957.555 234.353 957.032 234.383 956.602 234.383C954.451 234.383 952.669 233.953 951.255 233.093C949.841 232.232 948.92 230.727 948.489 228.576C946.4 230.604 943.818 232.079 940.745 233.001C937.734 233.922 934.815 234.383 931.987 234.383C929.836 234.383 927.778 234.076 925.811 233.462C923.844 232.908 922.093 232.079 920.556 230.972C919.081 229.805 917.883 228.36 916.961 226.64C916.1 224.857 915.67 222.798 915.67 220.463C915.67 217.513 916.192 215.116 917.237 213.272C918.344 211.428 919.757 209.984 921.478 208.939C923.26 207.894 925.227 207.157 927.378 206.727C929.591 206.235 931.803 205.866 934.016 205.62C935.921 205.252 937.734 205.006 939.455 204.883C941.176 204.699 942.681 204.422 943.972 204.053C945.324 203.684 946.369 203.131 947.107 202.394C947.905 201.595 948.305 200.427 948.305 198.891C948.305 197.539 947.967 196.432 947.291 195.572C946.676 194.711 945.877 194.066 944.894 193.636C943.972 193.144 942.927 192.837 941.76 192.714C940.592 192.53 939.486 192.437 938.441 192.437C935.491 192.437 933.063 193.052 931.158 194.281C929.253 195.51 928.177 197.416 927.931 199.997H917.422C917.606 196.924 918.344 194.373 919.634 192.345C920.925 190.317 922.553 188.688 924.52 187.459C926.548 186.23 928.822 185.37 931.342 184.878C933.862 184.386 936.443 184.14 939.086 184.14C941.422 184.14 943.726 184.386 946 184.878C948.274 185.37 950.302 186.169 952.085 187.275C953.929 188.381 955.404 189.825 956.51 191.608C957.616 193.329 958.169 195.449 958.169 197.969V222.491ZM947.66 209.216C946.062 210.261 944.095 210.906 941.76 211.152C939.424 211.336 937.089 211.643 934.753 212.074C933.647 212.258 932.571 212.535 931.527 212.903C930.482 213.211 929.56 213.672 928.761 214.286C927.962 214.839 927.317 215.608 926.825 216.591C926.395 217.513 926.18 218.65 926.18 220.002C926.18 221.17 926.518 222.153 927.194 222.952C927.87 223.751 928.669 224.396 929.591 224.888C930.574 225.318 931.619 225.625 932.725 225.81C933.893 225.994 934.938 226.086 935.859 226.086C937.027 226.086 938.287 225.933 939.639 225.625C940.991 225.318 942.251 224.796 943.419 224.058C944.648 223.321 945.662 222.399 946.461 221.293C947.26 220.125 947.66 218.711 947.66 217.052V209.216ZM965.606 185.431H973.534V171.142H984.043V185.431H993.539V193.267H984.043V218.711C984.043 219.818 984.074 220.77 984.136 221.569C984.258 222.368 984.474 223.044 984.781 223.597C985.15 224.15 985.672 224.581 986.348 224.888C987.024 225.134 987.946 225.257 989.114 225.257C989.851 225.257 990.589 225.257 991.326 225.257C992.064 225.195 992.801 225.072 993.539 224.888V233.001C992.371 233.124 991.234 233.246 990.128 233.369C989.022 233.492 987.885 233.554 986.717 233.554C983.951 233.554 981.708 233.308 979.987 232.816C978.328 232.263 977.006 231.495 976.023 230.511C975.101 229.467 974.456 228.176 974.087 226.64C973.78 225.103 973.595 223.351 973.534 221.385V193.267H965.606V185.431ZM1041.94 222.491C1041.94 223.782 1042.09 224.704 1042.4 225.257C1042.77 225.81 1043.44 226.086 1044.43 226.086C1044.74 226.086 1045.1 226.086 1045.53 226.086C1045.96 226.086 1046.46 226.025 1047.01 225.902V233.185C1046.64 233.308 1046.15 233.431 1045.53 233.554C1044.98 233.738 1044.4 233.892 1043.78 234.015C1043.17 234.138 1042.55 234.23 1041.94 234.291C1041.32 234.353 1040.8 234.383 1040.37 234.383C1038.22 234.383 1036.44 233.953 1035.02 233.093C1033.61 232.232 1032.69 230.727 1032.26 228.576C1030.17 230.604 1027.59 232.079 1024.52 233.001C1021.5 233.922 1018.58 234.383 1015.76 234.383C1013.61 234.383 1011.55 234.076 1009.58 233.462C1007.61 232.908 1005.86 232.079 1004.33 230.972C1002.85 229.805 1001.65 228.36 1000.73 226.64C999.87 224.857 999.44 222.798 999.44 220.463C999.44 217.513 999.962 215.116 1001.01 213.272C1002.11 211.428 1003.53 209.984 1005.25 208.939C1007.03 207.894 1009 207.157 1011.15 206.727C1013.36 206.235 1015.57 205.866 1017.79 205.62C1019.69 205.252 1021.5 205.006 1023.22 204.883C1024.95 204.699 1026.45 204.422 1027.74 204.053C1029.09 203.684 1030.14 203.131 1030.88 202.394C1031.68 201.595 1032.07 200.427 1032.07 198.891C1032.07 197.539 1031.74 196.432 1031.06 195.572C1030.45 194.711 1029.65 194.066 1028.66 193.636C1027.74 193.144 1026.7 192.837 1025.53 192.714C1024.36 192.53 1023.26 192.437 1022.21 192.437C1019.26 192.437 1016.83 193.052 1014.93 194.281C1013.02 195.51 1011.95 197.416 1011.7 199.997H1001.19C1001.38 196.924 1002.11 194.373 1003.4 192.345C1004.69 190.317 1006.32 188.688 1008.29 187.459C1010.32 186.23 1012.59 185.37 1015.11 184.878C1017.63 184.386 1020.21 184.14 1022.86 184.14C1025.19 184.14 1027.5 184.386 1029.77 184.878C1032.04 185.37 1034.07 186.169 1035.85 187.275C1037.7 188.381 1039.17 189.825 1040.28 191.608C1041.39 193.329 1041.94 195.449 1041.94 197.969V222.491ZM1031.43 209.216C1029.83 210.261 1027.86 210.906 1025.53 211.152C1023.19 211.336 1020.86 211.643 1018.52 212.074C1017.42 212.258 1016.34 212.535 1015.3 212.903C1014.25 213.211 1013.33 213.672 1012.53 214.286C1011.73 214.839 1011.09 215.608 1010.59 216.591C1010.16 217.513 1009.95 218.65 1009.95 220.002C1009.95 221.17 1010.29 222.153 1010.96 222.952C1011.64 223.751 1012.44 224.396 1013.36 224.888C1014.34 225.318 1015.39 225.625 1016.49 225.81C1017.66 225.994 1018.71 226.086 1019.63 226.086C1020.8 226.086 1022.06 225.933 1023.41 225.625C1024.76 225.318 1026.02 224.796 1027.19 224.058C1028.42 223.321 1029.43 222.399 1030.23 221.293C1031.03 220.125 1031.43 218.711 1031.43 217.052V209.216ZM1089.78 211.152C1089.78 213.672 1090.21 215.823 1091.07 217.605C1091.93 219.387 1093.13 220.862 1094.67 222.03C1096.21 223.136 1097.96 223.966 1099.92 224.519C1101.95 225.011 1104.13 225.257 1106.47 225.257C1108.99 225.257 1111.14 224.98 1112.92 224.427C1114.71 223.812 1116.15 223.044 1117.26 222.122C1118.36 221.2 1119.16 220.156 1119.65 218.988C1120.14 217.759 1120.39 216.529 1120.39 215.3C1120.39 212.78 1119.81 210.937 1118.64 209.769C1117.53 208.54 1116.3 207.679 1114.95 207.188C1112.62 206.327 1109.88 205.528 1106.75 204.791C1103.67 203.992 1099.86 202.978 1095.31 201.748C1092.49 201.011 1090.12 200.058 1088.22 198.891C1086.37 197.661 1084.9 196.309 1083.79 194.834C1082.68 193.359 1081.89 191.792 1081.39 190.133C1080.96 188.473 1080.75 186.783 1080.75 185.062C1080.75 181.743 1081.43 178.886 1082.78 176.489C1084.19 174.03 1086.03 172.002 1088.31 170.404C1090.58 168.806 1093.16 167.639 1096.05 166.901C1098.94 166.102 1101.86 165.703 1104.81 165.703C1108.25 165.703 1111.48 166.163 1114.49 167.085C1117.56 167.946 1120.24 169.267 1122.51 171.049C1124.85 172.832 1126.69 175.044 1128.04 177.687C1129.39 180.268 1130.07 183.28 1130.07 186.722H1118.55C1118.24 182.481 1116.79 179.5 1114.21 177.779C1111.63 175.997 1108.34 175.106 1104.35 175.106C1103 175.106 1101.61 175.259 1100.2 175.567C1098.79 175.813 1097.5 176.274 1096.33 176.95C1095.16 177.564 1094.18 178.425 1093.38 179.531C1092.64 180.637 1092.27 182.02 1092.27 183.679C1092.27 186.015 1092.98 187.859 1094.39 189.211C1095.87 190.501 1097.77 191.485 1100.11 192.161C1100.35 192.222 1101.31 192.499 1102.97 192.991C1104.69 193.421 1106.59 193.912 1108.68 194.466C1110.77 195.019 1112.8 195.572 1114.77 196.125C1116.79 196.617 1118.24 196.985 1119.1 197.231C1121.25 197.907 1123.13 198.829 1124.72 199.997C1126.32 201.165 1127.64 202.517 1128.69 204.053C1129.79 205.528 1130.59 207.126 1131.08 208.847C1131.64 210.568 1131.91 212.289 1131.91 214.01C1131.91 217.697 1131.15 220.862 1129.61 223.505C1128.13 226.086 1126.17 228.207 1123.71 229.866C1121.25 231.526 1118.45 232.724 1115.32 233.462C1112.19 234.261 1108.99 234.66 1105.73 234.66C1101.98 234.66 1098.45 234.199 1095.13 233.277C1091.81 232.355 1088.92 230.942 1086.46 229.036C1084.01 227.131 1082.04 224.704 1080.56 221.754C1079.09 218.742 1078.32 215.208 1078.26 211.152H1089.78ZM1163.3 234.383C1159.49 234.383 1156.08 233.769 1153.07 232.54C1150.12 231.249 1147.6 229.497 1145.51 227.285C1143.48 225.072 1141.91 222.43 1140.8 219.357C1139.76 216.284 1139.24 212.903 1139.24 209.216C1139.24 205.59 1139.76 202.24 1140.8 199.167C1141.91 196.094 1143.48 193.451 1145.51 191.239C1147.6 189.026 1150.12 187.306 1153.07 186.076C1156.08 184.786 1159.49 184.14 1163.3 184.14C1167.11 184.14 1170.49 184.786 1173.44 186.076C1176.45 187.306 1178.97 189.026 1181 191.239C1183.09 193.451 1184.66 196.094 1185.7 199.167C1186.81 202.24 1187.36 205.59 1187.36 209.216C1187.36 212.903 1186.81 216.284 1185.7 219.357C1184.66 222.43 1183.09 225.072 1181 227.285C1178.97 229.497 1176.45 231.249 1173.44 232.54C1170.49 233.769 1167.11 234.383 1163.3 234.383ZM1163.3 226.086C1165.63 226.086 1167.66 225.595 1169.38 224.611C1171.1 223.628 1172.52 222.337 1173.62 220.739C1174.73 219.141 1175.53 217.359 1176.02 215.392C1176.57 213.364 1176.85 211.305 1176.85 209.216C1176.85 207.188 1176.57 205.159 1176.02 203.131C1175.53 201.103 1174.73 199.321 1173.62 197.784C1172.52 196.186 1171.1 194.896 1169.38 193.912C1167.66 192.929 1165.63 192.437 1163.3 192.437C1160.96 192.437 1158.94 192.929 1157.21 193.912C1155.49 194.896 1154.08 196.186 1152.97 197.784C1151.87 199.321 1151.04 201.103 1150.48 203.131C1149.99 205.159 1149.75 207.188 1149.75 209.216C1149.75 211.305 1149.99 213.364 1150.48 215.392C1151.04 217.359 1151.87 219.141 1152.97 220.739C1154.08 222.337 1155.49 223.628 1157.21 224.611C1158.94 225.595 1160.96 226.086 1163.3 226.086ZM1197.3 167.27H1207.81V233.093H1197.3V167.27ZM1262.03 233.093H1251.71V226.455H1251.52C1250.23 228.852 1248.3 230.788 1245.71 232.263C1243.19 233.677 1240.61 234.383 1237.97 234.383C1231.7 234.383 1227.15 232.847 1224.33 229.774C1221.56 226.64 1220.18 221.938 1220.18 215.669V185.431H1230.69V214.655C1230.69 218.834 1231.49 221.784 1233.08 223.505C1234.68 225.226 1236.93 226.086 1239.81 226.086C1242.03 226.086 1243.87 225.748 1245.35 225.072C1246.82 224.396 1248.02 223.505 1248.94 222.399C1249.86 221.231 1250.51 219.848 1250.88 218.25C1251.31 216.652 1251.52 214.932 1251.52 213.088V185.431H1262.03V233.093ZM1269.24 185.431H1277.17V171.142H1287.68V185.431H1297.18V193.267H1287.68V218.711C1287.68 219.818 1287.71 220.77 1287.77 221.569C1287.9 222.368 1288.11 223.044 1288.42 223.597C1288.79 224.15 1289.31 224.581 1289.99 224.888C1290.66 225.134 1291.58 225.257 1292.75 225.257C1293.49 225.257 1294.23 225.257 1294.96 225.257C1295.7 225.195 1296.44 225.072 1297.18 224.888V233.001C1296.01 233.124 1294.87 233.246 1293.76 233.369C1292.66 233.492 1291.52 233.554 1290.35 233.554C1287.59 233.554 1285.35 233.308 1283.62 232.816C1281.96 232.263 1280.64 231.495 1279.66 230.511C1278.74 229.467 1278.09 228.176 1277.72 226.64C1277.42 225.103 1277.23 223.351 1277.17 221.385V193.267H1269.24V185.431ZM1305.93 167.27H1316.44V177.226H1305.93V167.27ZM1305.93 185.431H1316.44V233.093H1305.93V185.431ZM1350.67 234.383C1346.86 234.383 1343.44 233.769 1340.43 232.54C1337.48 231.249 1334.96 229.497 1332.87 227.285C1330.85 225.072 1329.28 222.43 1328.17 219.357C1327.13 216.284 1326.6 212.903 1326.6 209.216C1326.6 205.59 1327.13 202.24 1328.17 199.167C1329.28 196.094 1330.85 193.451 1332.87 191.239C1334.96 189.026 1337.48 187.306 1340.43 186.076C1343.44 184.786 1346.86 184.14 1350.67 184.14C1354.48 184.14 1357.86 184.786 1360.81 186.076C1363.82 187.306 1366.34 189.026 1368.37 191.239C1370.46 193.451 1372.02 196.094 1373.07 199.167C1374.17 202.24 1374.73 205.59 1374.73 209.216C1374.73 212.903 1374.17 216.284 1373.07 219.357C1372.02 222.43 1370.46 225.072 1368.37 227.285C1366.34 229.497 1363.82 231.249 1360.81 232.54C1357.86 233.769 1354.48 234.383 1350.67 234.383ZM1350.67 226.086C1353 226.086 1355.03 225.595 1356.75 224.611C1358.47 223.628 1359.88 222.337 1360.99 220.739C1362.1 219.141 1362.9 217.359 1363.39 215.392C1363.94 213.364 1364.22 211.305 1364.22 209.216C1364.22 207.188 1363.94 205.159 1363.39 203.131C1362.9 201.103 1362.1 199.321 1360.99 197.784C1359.88 196.186 1358.47 194.896 1356.75 193.912C1355.03 192.929 1353 192.437 1350.67 192.437C1348.33 192.437 1346.3 192.929 1344.58 193.912C1342.86 194.896 1341.45 196.186 1340.34 197.784C1339.23 199.321 1338.4 201.103 1337.85 203.131C1337.36 205.159 1337.11 207.188 1337.11 209.216C1337.11 211.305 1337.36 213.364 1337.85 215.392C1338.4 217.359 1339.23 219.141 1340.34 220.739C1341.45 222.337 1342.86 223.628 1344.58 224.611C1346.3 225.595 1348.33 226.086 1350.67 226.086ZM1384.39 185.431H1394.34V192.437L1394.53 192.622C1396.12 189.979 1398.21 187.92 1400.8 186.445C1403.38 184.909 1406.23 184.14 1409.37 184.14C1414.59 184.14 1418.71 185.492 1421.72 188.197C1424.73 190.901 1426.24 194.957 1426.24 200.366V233.093H1415.73V203.131C1415.61 199.382 1414.81 196.678 1413.33 195.019C1411.86 193.298 1409.55 192.437 1406.42 192.437C1404.64 192.437 1403.04 192.775 1401.63 193.451C1400.21 194.066 1399.01 194.957 1398.03 196.125C1397.05 197.231 1396.28 198.553 1395.73 200.089C1395.17 201.626 1394.9 203.254 1394.9 204.975V233.093H1384.39V185.431ZM392.634 298.431H400.47V294.467C400.47 291.455 400.839 289.028 401.577 287.184C402.314 285.279 403.298 283.834 404.527 282.851C405.756 281.806 407.139 281.13 408.675 280.823C410.273 280.454 411.933 280.27 413.654 280.27C417.034 280.27 419.492 280.485 421.029 280.915V289.12C420.353 288.936 419.615 288.813 418.816 288.751C418.079 288.628 417.187 288.567 416.143 288.567C414.729 288.567 413.5 288.905 412.455 289.581C411.472 290.257 410.98 291.578 410.98 293.545V298.431H419.922V306.267H410.98V346.093H400.47V306.267H392.634V298.431ZM449.186 347.383C445.375 347.383 441.964 346.769 438.953 345.54C436.003 344.249 433.483 342.497 431.393 340.285C429.365 338.072 427.798 335.43 426.692 332.357C425.647 329.284 425.125 325.903 425.125 322.216C425.125 318.59 425.647 315.24 426.692 312.167C427.798 309.094 429.365 306.451 431.393 304.239C433.483 302.026 436.003 300.306 438.953 299.076C441.964 297.786 445.375 297.14 449.186 297.14C452.996 297.14 456.377 297.786 459.327 299.076C462.338 300.306 464.858 302.026 466.886 304.239C468.976 306.451 470.543 309.094 471.588 312.167C472.694 315.24 473.247 318.59 473.247 322.216C473.247 325.903 472.694 329.284 471.588 332.357C470.543 335.43 468.976 338.072 466.886 340.285C464.858 342.497 462.338 344.249 459.327 345.54C456.377 346.769 452.996 347.383 449.186 347.383ZM449.186 339.086C451.521 339.086 453.55 338.595 455.27 337.611C456.991 336.628 458.405 335.337 459.511 333.739C460.617 332.141 461.416 330.359 461.908 328.392C462.461 326.364 462.738 324.305 462.738 322.216C462.738 320.188 462.461 318.159 461.908 316.131C461.416 314.103 460.617 312.321 459.511 310.784C458.405 309.186 456.991 307.896 455.27 306.912C453.55 305.929 451.521 305.437 449.186 305.437C446.85 305.437 444.822 305.929 443.101 306.912C441.381 307.896 439.967 309.186 438.861 310.784C437.754 312.321 436.925 314.103 436.372 316.131C435.88 318.159 435.634 320.188 435.634 322.216C435.634 324.305 435.88 326.364 436.372 328.392C436.925 330.359 437.754 332.141 438.861 333.739C439.967 335.337 441.381 336.628 443.101 337.611C444.822 338.595 446.85 339.086 449.186 339.086ZM482.906 298.431H492.77V307.65H492.955C493.262 306.359 493.846 305.099 494.706 303.87C495.628 302.641 496.704 301.535 497.933 300.551C499.224 299.507 500.637 298.677 502.174 298.062C503.71 297.448 505.277 297.14 506.875 297.14C508.105 297.14 508.934 297.171 509.365 297.233C509.856 297.294 510.348 297.355 510.84 297.417V307.558C510.102 307.435 509.334 307.343 508.535 307.281C507.797 307.158 507.06 307.097 506.322 307.097C504.54 307.097 502.85 307.466 501.252 308.203C499.715 308.879 498.363 309.924 497.196 311.337C496.028 312.69 495.106 314.38 494.43 316.408C493.754 318.436 493.416 320.771 493.416 323.414V346.093H482.906V298.431ZM544.293 280.27H571.581C576.621 280.27 580.985 281.13 584.672 282.851C588.36 284.572 591.371 286.938 593.707 289.95C596.042 292.9 597.763 296.372 598.869 300.367C600.037 304.362 600.621 308.633 600.621 313.181C600.621 317.729 600.037 322.001 598.869 325.996C597.763 329.99 596.042 333.494 593.707 336.505C591.371 339.455 588.36 341.791 584.672 343.511C580.985 345.232 576.621 346.093 571.581 346.093H544.293V280.27ZM555.817 336.689H567.156C571.643 336.689 575.3 336.106 578.127 334.938C581.015 333.709 583.259 332.049 584.857 329.96C586.516 327.809 587.622 325.319 588.175 322.492C588.79 319.604 589.097 316.5 589.097 313.181C589.097 309.862 588.79 306.789 588.175 303.962C587.622 301.074 586.516 298.585 584.857 296.495C583.259 294.344 581.015 292.685 578.127 291.517C575.3 290.288 571.643 289.673 567.156 289.673H555.817V336.689ZM610.548 280.27H621.057V290.226H610.548V280.27ZM610.548 298.431H621.057V346.093H610.548V298.431ZM641.358 330.789C641.666 333.862 642.833 336.013 644.862 337.243C646.89 338.472 649.317 339.086 652.145 339.086C653.128 339.086 654.234 339.025 655.463 338.902C656.754 338.718 657.952 338.41 659.059 337.98C660.165 337.55 661.056 336.935 661.732 336.136C662.47 335.276 662.808 334.17 662.746 332.818C662.685 331.465 662.193 330.359 661.271 329.499C660.349 328.638 659.151 327.962 657.676 327.471C656.262 326.917 654.634 326.456 652.79 326.088C650.946 325.719 649.072 325.319 647.166 324.889C645.2 324.459 643.294 323.937 641.451 323.322C639.668 322.707 638.04 321.878 636.565 320.833C635.151 319.788 634.014 318.467 633.154 316.869C632.293 315.209 631.863 313.181 631.863 310.784C631.863 308.203 632.478 306.052 633.707 304.331C634.997 302.549 636.595 301.135 638.501 300.09C640.467 298.984 642.618 298.216 644.954 297.786C647.351 297.355 649.625 297.14 651.776 297.14C654.234 297.14 656.57 297.417 658.782 297.97C661.056 298.462 663.084 299.291 664.867 300.459C666.71 301.627 668.216 303.163 669.384 305.069C670.613 306.912 671.381 309.156 671.689 311.798H660.718C660.226 309.279 659.059 307.588 657.215 306.728C655.433 305.868 653.374 305.437 651.038 305.437C650.301 305.437 649.41 305.499 648.365 305.622C647.381 305.745 646.429 305.991 645.507 306.359C644.647 306.667 643.909 307.158 643.294 307.834C642.68 308.449 642.373 309.279 642.373 310.323C642.373 311.614 642.803 312.659 643.663 313.458C644.585 314.257 645.753 314.933 647.166 315.486C648.641 315.978 650.301 316.408 652.145 316.777C653.988 317.145 655.894 317.545 657.86 317.975C659.766 318.405 661.64 318.928 663.484 319.542C665.328 320.157 666.956 320.987 668.37 322.031C669.845 323.076 671.013 324.398 671.873 325.996C672.795 327.593 673.256 329.56 673.256 331.896C673.256 334.723 672.611 337.12 671.32 339.086C670.029 341.053 668.339 342.651 666.25 343.88C664.221 345.109 661.947 346.001 659.428 346.554C656.908 347.107 654.419 347.383 651.96 347.383C648.949 347.383 646.152 347.045 643.571 346.369C641.051 345.693 638.839 344.679 636.933 343.327C635.09 341.914 633.615 340.193 632.508 338.165C631.463 336.075 630.91 333.617 630.849 330.789H641.358ZM722.075 335.491C722.075 336.782 722.229 337.704 722.536 338.257C722.905 338.81 723.581 339.086 724.564 339.086C724.871 339.086 725.24 339.086 725.67 339.086C726.101 339.086 726.592 339.025 727.145 338.902V346.185C726.777 346.308 726.285 346.431 725.67 346.554C725.117 346.738 724.533 346.892 723.919 347.015C723.304 347.138 722.69 347.23 722.075 347.291C721.46 347.353 720.938 347.383 720.508 347.383C718.357 347.383 716.574 346.953 715.161 346.093C713.747 345.232 712.825 343.727 712.395 341.576C710.306 343.604 707.724 345.079 704.651 346.001C701.64 346.922 698.72 347.383 695.893 347.383C693.742 347.383 691.683 347.076 689.717 346.462C687.75 345.908 685.998 345.079 684.462 343.972C682.987 342.805 681.788 341.36 680.867 339.64C680.006 337.857 679.576 335.798 679.576 333.463C679.576 330.513 680.098 328.116 681.143 326.272C682.249 324.428 683.663 322.984 685.384 321.939C687.166 320.894 689.133 320.157 691.284 319.727C693.496 319.235 695.709 318.866 697.922 318.62C699.827 318.252 701.64 318.006 703.361 317.883C705.082 317.699 706.587 317.422 707.878 317.053C709.23 316.684 710.275 316.131 711.012 315.394C711.811 314.595 712.211 313.427 712.211 311.891C712.211 310.539 711.873 309.432 711.197 308.572C710.582 307.711 709.783 307.066 708.8 306.636C707.878 306.144 706.833 305.837 705.665 305.714C704.498 305.53 703.391 305.437 702.347 305.437C699.397 305.437 696.969 306.052 695.064 307.281C693.158 308.51 692.083 310.416 691.837 312.997H681.327C681.512 309.924 682.249 307.373 683.54 305.345C684.831 303.317 686.459 301.688 688.426 300.459C690.454 299.23 692.728 298.37 695.248 297.878C697.768 297.386 700.349 297.14 702.992 297.14C705.327 297.14 707.632 297.386 709.906 297.878C712.18 298.37 714.208 299.169 715.991 300.275C717.834 301.381 719.309 302.825 720.416 304.608C721.522 306.329 722.075 308.449 722.075 310.969V335.491ZM711.565 322.216C709.968 323.261 708.001 323.906 705.665 324.152C703.33 324.336 700.994 324.643 698.659 325.074C697.553 325.258 696.477 325.535 695.432 325.903C694.388 326.211 693.466 326.672 692.667 327.286C691.868 327.839 691.222 328.608 690.731 329.591C690.301 330.513 690.085 331.65 690.085 333.002C690.085 334.17 690.423 335.153 691.1 335.952C691.776 336.751 692.575 337.396 693.496 337.888C694.48 338.318 695.525 338.625 696.631 338.81C697.799 338.994 698.843 339.086 699.765 339.086C700.933 339.086 702.193 338.933 703.545 338.625C704.897 338.318 706.157 337.796 707.325 337.058C708.554 336.321 709.568 335.399 710.367 334.293C711.166 333.125 711.565 331.711 711.565 330.052V322.216ZM742.234 330.789C742.541 333.862 743.709 336.013 745.737 337.243C747.765 338.472 750.192 339.086 753.02 339.086C754.003 339.086 755.109 339.025 756.338 338.902C757.629 338.718 758.828 338.41 759.934 337.98C761.04 337.55 761.931 336.935 762.607 336.136C763.345 335.276 763.683 334.17 763.621 332.818C763.56 331.465 763.068 330.359 762.146 329.499C761.224 328.638 760.026 327.962 758.551 327.471C757.137 326.917 755.509 326.456 753.665 326.088C751.821 325.719 749.947 325.319 748.041 324.889C746.075 324.459 744.169 323.937 742.326 323.322C740.543 322.707 738.915 321.878 737.44 320.833C736.026 319.788 734.889 318.467 734.029 316.869C733.168 315.209 732.738 313.181 732.738 310.784C732.738 308.203 733.353 306.052 734.582 304.331C735.872 302.549 737.47 301.135 739.376 300.09C741.342 298.984 743.493 298.216 745.829 297.786C748.226 297.355 750.5 297.14 752.651 297.14C755.109 297.14 757.445 297.417 759.657 297.97C761.931 298.462 763.959 299.291 765.742 300.459C767.586 301.627 769.091 303.163 770.259 305.069C771.488 306.912 772.256 309.156 772.564 311.798H761.593C761.102 309.279 759.934 307.588 758.09 306.728C756.308 305.868 754.249 305.437 751.913 305.437C751.176 305.437 750.285 305.499 749.24 305.622C748.257 305.745 747.304 305.991 746.382 306.359C745.522 306.667 744.784 307.158 744.169 307.834C743.555 308.449 743.248 309.279 743.248 310.323C743.248 311.614 743.678 312.659 744.538 313.458C745.46 314.257 746.628 314.933 748.041 315.486C749.516 315.978 751.176 316.408 753.02 316.777C754.863 317.145 756.769 317.545 758.735 317.975C760.641 318.405 762.515 318.928 764.359 319.542C766.203 320.157 767.831 320.987 769.245 322.031C770.72 323.076 771.888 324.398 772.748 325.996C773.67 327.593 774.131 329.56 774.131 331.896C774.131 334.723 773.486 337.12 772.195 339.086C770.904 341.053 769.214 342.651 767.125 343.88C765.096 345.109 762.822 346.001 760.303 346.554C757.783 347.107 755.294 347.383 752.835 347.383C749.824 347.383 747.027 347.045 744.446 346.369C741.926 345.693 739.714 344.679 737.808 343.327C735.965 341.914 734.49 340.193 733.383 338.165C732.339 336.075 731.785 333.617 731.724 330.789H742.234ZM778.238 298.431H786.167V284.142H796.676V298.431H806.172V306.267H796.676V331.711C796.676 332.818 796.707 333.77 796.768 334.569C796.891 335.368 797.106 336.044 797.414 336.597C797.782 337.15 798.305 337.581 798.981 337.888C799.657 338.134 800.579 338.257 801.747 338.257C802.484 338.257 803.222 338.257 803.959 338.257C804.697 338.195 805.434 338.072 806.172 337.888V346.001C805.004 346.124 803.867 346.246 802.761 346.369C801.654 346.492 800.517 346.554 799.35 346.554C796.584 346.554 794.341 346.308 792.62 345.816C790.96 345.263 789.639 344.495 788.656 343.511C787.734 342.467 787.089 341.176 786.72 339.64C786.412 338.103 786.228 336.351 786.167 334.385V306.267H778.238V298.431ZM847.381 318.067C847.258 316.408 846.889 314.81 846.275 313.273C845.722 311.737 844.923 310.416 843.878 309.309C842.894 308.142 841.665 307.22 840.19 306.544C838.777 305.806 837.179 305.437 835.396 305.437C833.553 305.437 831.862 305.775 830.326 306.451C828.851 307.066 827.56 307.957 826.454 309.125C825.409 310.231 824.549 311.553 823.873 313.089C823.258 314.626 822.92 316.285 822.859 318.067H847.381ZM822.859 324.981C822.859 326.825 823.104 328.608 823.596 330.328C824.149 332.049 824.948 333.555 825.993 334.846C827.038 336.136 828.359 337.181 829.957 337.98C831.555 338.718 833.46 339.086 835.673 339.086C838.746 339.086 841.204 338.441 843.048 337.15C844.953 335.798 846.367 333.801 847.289 331.158H857.245C856.692 333.739 855.739 336.044 854.387 338.072C853.035 340.1 851.407 341.821 849.501 343.235C847.596 344.587 845.445 345.601 843.048 346.277C840.713 347.015 838.254 347.383 835.673 347.383C831.924 347.383 828.605 346.769 825.717 345.54C822.828 344.31 820.37 342.59 818.341 340.377C816.375 338.165 814.869 335.522 813.824 332.449C812.841 329.376 812.349 325.996 812.349 322.308C812.349 318.928 812.871 315.732 813.916 312.72C815.023 309.647 816.559 306.974 818.526 304.7C820.554 302.364 822.982 300.521 825.809 299.169C828.636 297.816 831.832 297.14 835.396 297.14C839.145 297.14 842.495 297.939 845.445 299.537C848.456 301.074 850.946 303.133 852.912 305.714C854.879 308.295 856.293 311.276 857.153 314.656C858.075 317.975 858.321 321.417 857.891 324.981H822.859ZM866.802 298.431H876.666V307.65H876.85C877.158 306.359 877.742 305.099 878.602 303.87C879.524 302.641 880.599 301.535 881.829 300.551C883.119 299.507 884.533 298.677 886.069 298.062C887.606 297.448 889.173 297.14 890.771 297.14C892 297.14 892.83 297.171 893.26 297.233C893.752 297.294 894.243 297.355 894.735 297.417V307.558C893.998 307.435 893.229 307.343 892.43 307.281C891.693 307.158 890.955 307.097 890.218 307.097C888.436 307.097 886.745 307.466 885.147 308.203C883.611 308.879 882.259 309.924 881.091 311.337C879.923 312.69 879.002 314.38 878.325 316.408C877.649 318.436 877.311 320.771 877.311 323.414V346.093H866.802V298.431ZM928.189 280.27H959.625C966.878 280.27 972.317 281.837 975.943 284.971C979.569 288.106 981.382 292.469 981.382 298.062C981.382 301.197 980.921 303.809 979.999 305.898C979.077 307.926 978.002 309.586 976.773 310.877C975.543 312.106 974.314 312.997 973.085 313.55C971.917 314.103 971.057 314.472 970.504 314.656V314.841C971.487 314.964 972.532 315.271 973.638 315.763C974.806 316.254 975.881 317.053 976.865 318.159C977.848 319.204 978.647 320.587 979.262 322.308C979.938 324.029 980.276 326.18 980.276 328.761C980.276 332.633 980.552 336.167 981.106 339.363C981.72 342.497 982.642 344.741 983.871 346.093H971.518C970.657 344.679 970.135 343.112 969.951 341.391C969.828 339.67 969.766 338.011 969.766 336.413C969.766 333.401 969.582 330.82 969.213 328.669C968.844 326.456 968.168 324.643 967.185 323.23C966.202 321.755 964.85 320.679 963.129 320.003C961.469 319.327 959.318 318.989 956.675 318.989H939.713V346.093H928.189V280.27ZM939.713 310.231H958.611C962.299 310.231 965.095 309.371 967.001 307.65C968.906 305.868 969.858 303.225 969.858 299.722C969.858 297.632 969.551 295.942 968.937 294.651C968.322 293.299 967.462 292.254 966.355 291.517C965.31 290.779 964.081 290.288 962.668 290.042C961.316 289.796 959.902 289.673 958.427 289.673H939.713V310.231ZM992.823 280.27H1003.33V290.226H992.823V280.27ZM992.823 298.431H1003.33V346.093H992.823V298.431ZM1023.63 330.789C1023.94 333.862 1025.11 336.013 1027.14 337.243C1029.16 338.472 1031.59 339.086 1034.42 339.086C1035.4 339.086 1036.51 339.025 1037.74 338.902C1039.03 338.718 1040.23 338.41 1041.33 337.98C1042.44 337.55 1043.33 336.935 1044.01 336.136C1044.74 335.276 1045.08 334.17 1045.02 332.818C1044.96 331.465 1044.47 330.359 1043.55 329.499C1042.62 328.638 1041.43 327.962 1039.95 327.471C1038.54 326.917 1036.91 326.456 1035.07 326.088C1033.22 325.719 1031.35 325.319 1029.44 324.889C1027.47 324.459 1025.57 323.937 1023.73 323.322C1021.94 322.707 1020.31 321.878 1018.84 320.833C1017.43 319.788 1016.29 318.467 1015.43 316.869C1014.57 315.209 1014.14 313.181 1014.14 310.784C1014.14 308.203 1014.75 306.052 1015.98 304.331C1017.27 302.549 1018.87 301.135 1020.78 300.09C1022.74 298.984 1024.89 298.216 1027.23 297.786C1029.63 297.355 1031.9 297.14 1034.05 297.14C1036.51 297.14 1038.84 297.417 1041.06 297.97C1043.33 298.462 1045.36 299.291 1047.14 300.459C1048.99 301.627 1050.49 303.163 1051.66 305.069C1052.89 306.912 1053.66 309.156 1053.96 311.798H1042.99C1042.5 309.279 1041.33 307.588 1039.49 306.728C1037.71 305.868 1035.65 305.437 1033.31 305.437C1032.58 305.437 1031.68 305.499 1030.64 305.622C1029.66 305.745 1028.7 305.991 1027.78 306.359C1026.92 306.667 1026.18 307.158 1025.57 307.834C1024.95 308.449 1024.65 309.279 1024.65 310.323C1024.65 311.614 1025.08 312.659 1025.94 313.458C1026.86 314.257 1028.03 314.933 1029.44 315.486C1030.92 315.978 1032.58 316.408 1034.42 316.777C1036.26 317.145 1038.17 317.545 1040.14 317.975C1042.04 318.405 1043.92 318.928 1045.76 319.542C1047.6 320.157 1049.23 320.987 1050.64 322.031C1052.12 323.076 1053.29 324.398 1054.15 325.996C1055.07 327.593 1055.53 329.56 1055.53 331.896C1055.53 334.723 1054.89 337.12 1053.6 339.086C1052.3 341.053 1050.61 342.651 1048.52 343.88C1046.5 345.109 1044.22 346.001 1041.7 346.554C1039.18 347.107 1036.69 347.383 1034.24 347.383C1031.22 347.383 1028.43 347.045 1025.85 346.369C1023.33 345.693 1021.11 344.679 1019.21 343.327C1017.36 341.914 1015.89 340.193 1014.78 338.165C1013.74 336.075 1013.19 333.617 1013.12 330.789H1023.63ZM1064.71 280.27H1075.22V317.699L1094.21 298.431H1107.12L1088.86 315.947L1108.87 346.093H1096.05L1081.49 322.953L1075.22 329.038V346.093H1064.71V280.27ZM1142.92 280.27H1174.36C1181.61 280.27 1187.05 281.837 1190.68 284.971C1194.3 288.106 1196.12 292.469 1196.12 298.062C1196.12 301.197 1195.66 303.809 1194.74 305.898C1193.81 307.926 1192.74 309.586 1191.51 310.877C1190.28 312.106 1189.05 312.997 1187.82 313.55C1186.65 314.103 1185.79 314.472 1185.24 314.656V314.841C1186.22 314.964 1187.27 315.271 1188.37 315.763C1189.54 316.254 1190.62 317.053 1191.6 318.159C1192.58 319.204 1193.38 320.587 1194 322.308C1194.67 324.029 1195.01 326.18 1195.01 328.761C1195.01 332.633 1195.29 336.167 1195.84 339.363C1196.46 342.497 1197.38 344.741 1198.61 346.093H1186.25C1185.39 344.679 1184.87 343.112 1184.69 341.391C1184.56 339.67 1184.5 338.011 1184.5 336.413C1184.5 333.401 1184.32 330.82 1183.95 328.669C1183.58 326.456 1182.9 324.643 1181.92 323.23C1180.94 321.755 1179.59 320.679 1177.86 320.003C1176.21 319.327 1174.05 318.989 1171.41 318.989H1154.45V346.093H1142.92V280.27ZM1154.45 310.231H1173.35C1177.03 310.231 1179.83 309.371 1181.74 307.65C1183.64 305.868 1184.59 303.225 1184.59 299.722C1184.59 297.632 1184.29 295.942 1183.67 294.651C1183.06 293.299 1182.2 292.254 1181.09 291.517C1180.05 290.779 1178.82 290.288 1177.4 290.042C1176.05 289.796 1174.64 289.673 1173.16 289.673H1154.45V310.231ZM1240.01 318.067C1239.89 316.408 1239.52 314.81 1238.9 313.273C1238.35 311.737 1237.55 310.416 1236.51 309.309C1235.52 308.142 1234.29 307.22 1232.82 306.544C1231.41 305.806 1229.81 305.437 1228.02 305.437C1226.18 305.437 1224.49 305.775 1222.95 306.451C1221.48 307.066 1220.19 307.957 1219.08 309.125C1218.04 310.231 1217.18 311.553 1216.5 313.089C1215.89 314.626 1215.55 316.285 1215.49 318.067H1240.01ZM1215.49 324.981C1215.49 326.825 1215.73 328.608 1216.22 330.328C1216.78 332.049 1217.58 333.555 1218.62 334.846C1219.67 336.136 1220.99 337.181 1222.59 337.98C1224.18 338.718 1226.09 339.086 1228.3 339.086C1231.37 339.086 1233.83 338.441 1235.68 337.15C1237.58 335.798 1239 333.801 1239.92 331.158H1249.87C1249.32 333.739 1248.37 336.044 1247.02 338.072C1245.66 340.1 1244.03 341.821 1242.13 343.235C1240.22 344.587 1238.07 345.601 1235.68 346.277C1233.34 347.015 1230.88 347.383 1228.3 347.383C1224.55 347.383 1221.23 346.769 1218.34 345.54C1215.46 344.31 1213 342.59 1210.97 340.377C1209 338.165 1207.5 335.522 1206.45 332.449C1205.47 329.376 1204.98 325.996 1204.98 322.308C1204.98 318.928 1205.5 315.732 1206.54 312.72C1207.65 309.647 1209.19 306.974 1211.15 304.7C1213.18 302.364 1215.61 300.521 1218.44 299.169C1221.26 297.816 1224.46 297.14 1228.02 297.14C1231.77 297.14 1235.12 297.939 1238.07 299.537C1241.08 301.074 1243.57 303.133 1245.54 305.714C1247.51 308.295 1248.92 311.276 1249.78 314.656C1250.7 317.975 1250.95 321.417 1250.52 324.981H1215.49ZM1304.33 346.093H1294.37V339.64H1294.19C1292.77 342.405 1290.71 344.403 1288.01 345.632C1285.3 346.8 1282.45 347.383 1279.44 347.383C1275.69 347.383 1272.4 346.738 1269.57 345.447C1266.81 344.095 1264.5 342.282 1262.66 340.008C1260.81 337.734 1259.43 335.061 1258.51 331.988C1257.59 328.853 1257.13 325.504 1257.13 321.939C1257.13 317.637 1257.71 313.919 1258.88 310.784C1260.04 307.65 1261.58 305.069 1263.49 303.04C1265.45 301.012 1267.67 299.537 1270.12 298.615C1272.64 297.632 1275.19 297.14 1277.78 297.14C1279.25 297.14 1280.76 297.294 1282.29 297.601C1283.83 297.847 1285.3 298.277 1286.72 298.892C1288.13 299.507 1289.42 300.306 1290.59 301.289C1291.82 302.211 1292.83 303.317 1293.63 304.608H1293.82V280.27H1304.33V346.093ZM1267.64 322.769C1267.64 324.797 1267.88 326.795 1268.37 328.761C1268.93 330.728 1269.72 332.48 1270.77 334.016C1271.88 335.552 1273.26 336.782 1274.92 337.704C1276.58 338.625 1278.54 339.086 1280.82 339.086C1283.15 339.086 1285.15 338.595 1286.81 337.611C1288.53 336.628 1289.91 335.337 1290.96 333.739C1292.07 332.141 1292.86 330.359 1293.36 328.392C1293.91 326.364 1294.19 324.305 1294.19 322.216C1294.19 316.93 1292.99 312.813 1290.59 309.862C1288.25 306.912 1285.06 305.437 1281 305.437C1278.54 305.437 1276.45 305.96 1274.73 307.005C1273.07 307.988 1271.69 309.309 1270.59 310.969C1269.54 312.567 1268.77 314.41 1268.28 316.5C1267.85 318.528 1267.64 320.618 1267.64 322.769ZM1358.56 346.093H1348.24V339.455H1348.05C1346.76 341.852 1344.83 343.788 1342.25 345.263C1339.73 346.677 1337.15 347.383 1334.5 347.383C1328.23 347.383 1323.69 345.847 1320.86 342.774C1318.09 339.64 1316.71 334.938 1316.71 328.669V298.431H1327.22V327.655C1327.22 331.834 1328.02 334.784 1329.62 336.505C1331.21 338.226 1333.46 339.086 1336.35 339.086C1338.56 339.086 1340.4 338.748 1341.88 338.072C1343.35 337.396 1344.55 336.505 1345.47 335.399C1346.39 334.231 1347.04 332.848 1347.41 331.25C1347.84 329.652 1348.05 327.932 1348.05 326.088V298.431H1358.56V346.093ZM1402.74 314.38C1402.31 311.43 1401.11 309.217 1399.15 307.742C1397.24 306.206 1394.81 305.437 1391.86 305.437C1390.51 305.437 1389.07 305.683 1387.53 306.175C1385.99 306.605 1384.58 307.466 1383.29 308.756C1382 309.985 1380.92 311.737 1380.06 314.011C1379.2 316.224 1378.77 319.143 1378.77 322.769C1378.77 324.736 1378.99 326.702 1379.42 328.669C1379.91 330.636 1380.65 332.387 1381.63 333.924C1382.68 335.46 1384 336.72 1385.6 337.704C1387.19 338.625 1389.13 339.086 1391.4 339.086C1394.48 339.086 1397 338.134 1398.96 336.229C1400.99 334.323 1402.25 331.65 1402.74 328.208H1413.25C1412.27 334.415 1409.9 339.179 1406.15 342.497C1402.47 345.755 1397.55 347.383 1391.4 347.383C1387.65 347.383 1384.34 346.769 1381.45 345.54C1378.62 344.249 1376.22 342.528 1374.26 340.377C1372.29 338.165 1370.78 335.552 1369.74 332.541C1368.76 329.529 1368.26 326.272 1368.26 322.769C1368.26 319.204 1368.76 315.855 1369.74 312.72C1370.72 309.586 1372.2 306.882 1374.16 304.608C1376.13 302.272 1378.56 300.459 1381.45 299.169C1384.4 297.816 1387.84 297.14 1391.77 297.14C1394.54 297.14 1397.15 297.509 1399.61 298.247C1402.13 298.923 1404.34 299.967 1406.25 301.381C1408.21 302.795 1409.81 304.577 1411.04 306.728C1412.27 308.879 1413.01 311.43 1413.25 314.38H1402.74ZM1417.92 298.431H1425.85V284.142H1436.36V298.431H1445.86V306.267H1436.36V331.711C1436.36 332.818 1436.39 333.77 1436.45 334.569C1436.58 335.368 1436.79 336.044 1437.1 336.597C1437.47 337.15 1437.99 337.581 1438.67 337.888C1439.34 338.134 1440.26 338.257 1441.43 338.257C1442.17 338.257 1442.91 338.257 1443.64 338.257C1444.38 338.195 1445.12 338.072 1445.86 337.888V346.001C1444.69 346.124 1443.55 346.246 1442.45 346.369C1441.34 346.492 1440.2 346.554 1439.03 346.554C1436.27 346.554 1434.03 346.308 1432.3 345.816C1430.64 345.263 1429.32 344.495 1428.34 343.511C1427.42 342.467 1426.77 341.176 1426.4 339.64C1426.1 338.103 1425.91 336.351 1425.85 334.385V306.267H1417.92V298.431ZM1454.61 280.27H1465.12V290.226H1454.61V280.27ZM1454.61 298.431H1465.12V346.093H1454.61V298.431ZM1499.35 347.383C1495.54 347.383 1492.12 346.769 1489.11 345.54C1486.16 344.249 1483.64 342.497 1481.55 340.285C1479.53 338.072 1477.96 335.43 1476.85 332.357C1475.81 329.284 1475.28 325.903 1475.28 322.216C1475.28 318.59 1475.81 315.24 1476.85 312.167C1477.96 309.094 1479.53 306.451 1481.55 304.239C1483.64 302.026 1486.16 300.306 1489.11 299.076C1492.12 297.786 1495.54 297.14 1499.35 297.14C1503.16 297.14 1506.54 297.786 1509.49 299.076C1512.5 300.306 1515.02 302.026 1517.05 304.239C1519.14 306.451 1520.7 309.094 1521.75 312.167C1522.85 315.24 1523.41 318.59 1523.41 322.216C1523.41 325.903 1522.85 329.284 1521.75 332.357C1520.7 335.43 1519.14 338.072 1517.05 340.285C1515.02 342.497 1512.5 344.249 1509.49 345.54C1506.54 346.769 1503.16 347.383 1499.35 347.383ZM1499.35 339.086C1501.68 339.086 1503.71 338.595 1505.43 337.611C1507.15 336.628 1508.56 335.337 1509.67 333.739C1510.78 332.141 1511.58 330.359 1512.07 328.392C1512.62 326.364 1512.9 324.305 1512.9 322.216C1512.9 320.188 1512.62 318.159 1512.07 316.131C1511.58 314.103 1510.78 312.321 1509.67 310.784C1508.56 309.186 1507.15 307.896 1505.43 306.912C1503.71 305.929 1501.68 305.437 1499.35 305.437C1497.01 305.437 1494.98 305.929 1493.26 306.912C1491.54 307.896 1490.13 309.186 1489.02 310.784C1487.91 312.321 1487.08 314.103 1486.53 316.131C1486.04 318.159 1485.79 320.188 1485.79 322.216C1485.79 324.305 1486.04 326.364 1486.53 328.392C1487.08 330.359 1487.91 332.141 1489.02 333.739C1490.13 335.337 1491.54 336.628 1493.26 337.611C1494.98 338.595 1497.01 339.086 1499.35 339.086ZM1533.07 298.431H1543.02V305.437L1543.21 305.622C1544.81 302.979 1546.89 300.92 1549.48 299.445C1552.06 297.909 1554.92 297.14 1558.05 297.14C1563.27 297.14 1567.39 298.492 1570.4 301.197C1573.41 303.901 1574.92 307.957 1574.92 313.366V346.093H1564.41V316.131C1564.29 312.382 1563.49 309.678 1562.01 308.019C1560.54 306.298 1558.23 305.437 1555.1 305.437C1553.32 305.437 1551.72 305.775 1550.31 306.451C1548.89 307.066 1547.69 307.957 1546.71 309.125C1545.73 310.231 1544.96 311.553 1544.41 313.089C1543.85 314.626 1543.58 316.254 1543.58 317.975V346.093H1533.07V298.431Z" fill="white"/>
<path d="M345.709 345.709H0V0H345.709V345.709ZM12.4316 334.709H42.3535C52.0899 334.709 59.3925 332.096 64.2607 326.872C69.1287 321.648 71.5625 313.989 71.5625 303.896V240.848C71.5625 230.755 69.1288 223.096 64.2607 217.872C59.3925 212.648 52.0899 210.035 42.3535 210.035H12.4316V334.709ZM84.7871 334.709H104.379V281.277H111.146C115.658 281.277 118.805 282.405 120.586 284.661C122.486 286.917 123.436 290.895 123.436 296.595V319.392C123.436 324.022 123.555 327.229 123.792 329.01C124.029 330.791 124.504 332.691 125.217 334.709H145.165C144.215 332.572 143.621 330.434 143.384 328.297C143.146 326.041 143.027 323.132 143.027 319.57V297.663C143.027 290.301 142.019 284.424 140 280.03C138.1 275.637 134.776 272.729 130.026 271.304V270.947C138.575 267.504 142.85 259.311 142.85 246.369V238.71C142.85 228.974 140.534 221.79 135.903 217.159C131.273 212.41 123.911 210.035 113.818 210.035H84.7871V334.709ZM156.623 334.709H176.215V281.277H182.982C187.494 281.277 190.641 282.405 192.422 284.661C194.322 286.917 195.271 290.895 195.271 296.595V319.392C195.271 324.022 195.39 327.229 195.628 329.01C195.865 330.791 196.34 332.691 197.053 334.709H217.001C216.051 332.572 215.457 330.434 215.22 328.297C214.982 326.041 214.863 323.132 214.863 319.57V297.663C214.863 290.301 213.854 284.424 211.836 280.03C209.936 275.637 206.611 272.729 201.862 271.304V270.947C210.411 267.504 214.685 259.311 214.686 246.369V238.71C214.686 228.974 212.37 221.79 207.739 217.159C203.109 212.41 195.747 210.035 185.654 210.035H156.623V334.709ZM41.9971 227.846C45.203 227.846 47.6375 228.796 49.2998 230.695C51.0808 232.595 51.9707 235.683 51.9707 239.957V304.787C51.9707 309.062 51.0808 312.149 49.2998 314.049C47.6375 315.949 45.203 316.898 41.9971 316.898H32.0234V227.846H41.9971ZM113.284 227.846C116.727 227.846 119.221 228.855 120.765 230.873C122.427 232.892 123.258 236.157 123.258 240.669V250.287C123.258 255.037 122.249 258.421 120.23 260.439C118.331 262.458 115.421 263.467 111.503 263.467H104.379V227.846H113.284ZM185.12 227.846C188.563 227.846 191.057 228.855 192.601 230.873C194.263 232.892 195.094 236.157 195.094 240.669V250.287C195.094 255.037 194.085 258.421 192.066 260.439C190.167 262.458 187.257 263.467 183.339 263.467H176.215V227.846H185.12ZM181.451 32.1416C169.419 32.1416 160.244 35.4422 153.927 42.0439C147.61 48.5022 144.451 57.6877 144.451 69.5996C144.451 78.3542 146.482 86.2479 150.543 93.2803C154.604 100.169 161.748 107.919 171.976 116.53C180.097 123.276 185.663 129.088 188.671 133.968C191.679 138.704 193.183 144.229 193.183 150.544C193.183 155.854 192.055 159.729 189.799 162.169C187.693 164.465 184.535 165.614 180.323 165.614C171.75 165.614 167.464 160.734 167.464 150.975V140.642H144V149.253C144 161.452 147.083 170.852 153.25 177.454C159.417 183.912 168.516 187.142 180.549 187.142C192.732 187.142 201.982 183.841 208.299 177.239C214.766 170.637 218 161.165 218 148.822C218 139.35 216.044 131.098 212.134 124.065C208.223 117.033 201.079 109.211 190.701 100.6C182.579 93.8543 176.939 88.114 173.78 83.3779C170.772 78.6418 169.269 73.5465 169.269 68.0928C169.269 58.4772 173.405 53.669 181.677 53.6689C185.738 53.6689 188.821 54.8893 190.927 57.3291C193.032 59.6254 194.085 63.3568 194.085 68.5234V76.2734H217.549V70.0303C217.549 57.8313 214.465 48.5022 208.299 42.0439C202.283 35.4422 193.333 32.1416 181.451 32.1416ZM14 34.1416V185.142H39V34.1416H14ZM57 185.142H94.9521C107.301 185.142 116.564 181.978 122.738 175.65C128.913 169.323 132 160.047 132 147.823V71.46C132 59.2363 128.913 49.9604 122.738 43.6328C116.564 37.3052 107.301 34.1417 94.9521 34.1416H57V185.142ZM94.5 55.7129C98.566 55.7129 101.653 56.8634 103.762 59.1641C106.021 61.465 107.15 65.2047 107.15 70.3818V148.901C107.15 154.079 106.021 157.818 103.762 160.119C101.653 162.42 98.566 163.57 94.5 163.57H81.8496V55.7129H94.5Z" fill="white"/>
</svg>
